<svg width="109" height="114" viewBox="0 0 109 114" fill="none" xmlns="http://www.w3.org/2000/svg">
<rect width="109" height="114" rx="54.5" fill="white"/>
<path d="M52.7082 77.2084C51.7578 77.2084 50.8464 76.8308 50.1744 76.1588C49.5024 75.4868 49.1248 74.5754 49.1248 73.625V70.0417H59.8748V73.625C59.8748 74.5754 59.4973 75.4868 58.8253 76.1588C58.1533 76.8308 57.2419 77.2084 56.2915 77.2084H52.7082ZM54.4998 37.7917C55.7719 37.7917 56.9903 37.9529 58.1728 38.2575C60.269 41.0704 61.6665 46.2304 61.6665 52.125C61.6665 56.21 60.9857 59.9546 59.8748 64.6667C59.8748 65.617 59.4973 66.5285 58.8253 67.2005C58.1533 67.8725 57.2419 68.25 56.2915 68.25H52.7082C51.7578 68.25 50.8464 67.8725 50.1744 67.2005C49.5024 66.5285 49.1248 65.617 49.1248 64.6667C48.014 59.9546 47.3332 56.21 47.3332 52.125C47.3332 46.2304 48.7307 41.0704 50.8269 38.2575C52.0094 37.9529 53.2278 37.7917 54.4998 37.7917ZM68.8332 50.3334C68.8332 56.0309 65.5186 64.5233 60.699 66.8346C62.4011 63.5738 63.4582 57.1954 63.4582 52.125C63.4582 47.0546 62.4011 42.4679 60.699 39.2071C65.5186 41.5184 68.8332 44.6359 68.8332 50.3334ZM40.1665 50.3334C40.1665 44.6359 43.4811 41.5184 48.3007 39.2071C46.5986 42.4679 45.5415 47.0546 45.5415 52.125C45.5415 57.1954 46.5986 63.5738 48.3007 66.8346C43.4811 64.5233 40.1665 56.0309 40.1665 50.3334Z" fill="#F3795F"/>
</svg>
